<?xml version="1.0" encoding="UTF-8"?>
<svg width="1025px" height="227px" viewBox="0 0 1025 227" version="1.1" xmlns="http://www.w3.org/2000/svg" xmlns:xlink="http://www.w3.org/1999/xlink">
    <title>wordmark</title>
    <defs>
        <linearGradient x1="74.9956527%" y1="11.8199858%" x2="25.0657068%" y2="88.2910269%" id="linearGradient-1">
            <stop stop-color="#FE01FA" offset="0%"></stop>
            <stop stop-color="#FF0F6F" offset="31.6318539%"></stop>
            <stop stop-color="#FF3D3D" offset="51.953125%"></stop>
            <stop stop-color="#FF851F" offset="70.8632996%"></stop>
            <stop stop-color="#FFDB01" offset="100%"></stop>
        </linearGradient>
    </defs>
    <g id="Main" stroke="none" stroke-width="1" fill="none" fill-rule="evenodd">
        <g id="ad1-copy" transform="translate(-88.000000, -700.000000)" fill-rule="nonzero">
            <g id="wordmark" transform="translate(88.000000, 700.073350)">
                <path d="M60.1865012,220.752453 L42.8607093,190.738461 C42.322674,189.626032 42.322674,188.328421 42.8607093,187.215992 L62.110576,153.871167 C62.7946123,152.823492 63.9350975,152.16308 65.1836244,152.091681 L103.66512,152.091681 C104.915643,152.164552 106.058294,152.824261 106.747287,153.871167 L125.988036,187.215992 C126.544921,188.336866 126.544921,189.654089 125.988036,190.774963 L106.692575,224.101537 C106.003426,225.120047 104.890114,225.771077 103.66512,225.871897 L69.0956058,225.871897 C65.4935509,225.639446 62.2028475,223.748507 60.1865012,220.752453 Z M185.11458,152.119058 L146.815461,85.6849241 C145.869091,84.2640682 144.314509,83.3664018 142.611677,83.2575232 L65.9222502,83.2575232 C64.2194189,83.3664018 62.6648361,84.2640682 61.7184659,85.6849241 L23.3737527,152.15556 C22.6176684,153.685383 22.6176684,155.48054 23.3737527,157.010362 L34.6537551,176.502575 L54.3139696,142.445956 C55.390927,140.8022 57.1777384,139.761097 59.1378348,139.635281 L109.656197,139.635281 C111.630713,139.745546 113.435125,140.789016 114.516537,142.445956 L139.784837,186.248682 C140.678606,188.015729 140.678606,190.102984 139.784837,191.870031 L120.124623,225.92665 L142.58432,225.92665 C144.291786,225.825531 145.850775,224.921937 146.788104,223.490124 L185.11458,157.028613 C185.888832,155.483807 185.888832,153.663865 185.11458,152.119058 Z M254.691314,108.161198 L195.920403,6.17385186 C193.889378,3.07119109 190.502793,1.1224679 186.801565,0.926650367 L69.1685565,0.926650367 C65.4673287,1.1224679 62.0807442,3.07119109 60.0497186,6.17385186 L1.25145198,108.161198 C-0.41715066,111.453627 -0.41715066,115.34492 1.25145198,118.637349 L14.7382132,142.007929 L53.8033147,74.2323366 C55.142812,72.1873662 57.3730422,70.9003966 59.8126288,70.7646209 L148.639229,70.7646209 C151.076395,70.900346 153.303868,72.1876782 154.639424,74.2323366 L199.039045,151.18825 C200.142377,153.368223 200.142377,155.943709 199.039045,158.123682 L159.937469,225.871897 L186.83804,225.871897 C190.539268,225.67608 193.925853,223.727357 195.956878,220.624695 L254.755145,118.646476 C256.414952,115.351946 256.414952,111.464852 254.755145,108.170323 L254.691314,108.161198 Z" id="Shape" fill="url(#linearGradient-1)"></path>
                <path d="M324.559612,168.423054 L324.559612,122.019282 L367.427758,122.019282 L367.427758,168.423054 L393.987371,168.423054 L393.987371,57.4302475 L367.427758,57.4302475 L367.427758,99.4444731 L324.559612,99.4444731 L324.559612,57.4302475 L298,57.4302475 L298,168.423054 L324.559612,168.423054 Z M487.470723,168.423054 L487.470723,145.534707 L436.329274,145.534707 L436.329274,122.48959 L482.030143,122.48959 L482.030143,101.012169 L436.329274,101.012169 L436.329274,80.161825 L484.67271,80.161825 L484.67271,57.4302475 L410.680827,57.4302475 L410.680827,168.423054 L487.470723,168.423054 Z M530.88996,168.423054 L554.068092,129.230679 L578.179571,168.423054 L611.002295,168.423054 L571.179465,109.79126 L606.024442,57.4302475 L575.068412,57.4302475 L554.845881,91.9195377 L534.312234,57.4302475 L502.2673,57.4302475 L537.734509,109.79126 L499.156141,168.423054 L530.88996,168.423054 Z M636.199497,170.092118 C640.491313,170.092118 644.181227,168.661491 647.269241,165.800238 C650.357255,162.938984 651.901262,159.362416 651.901262,155.070535 C651.901262,150.778655 650.357255,147.202087 647.269241,144.340834 C644.181227,141.47958 640.491313,140.048953 636.199497,140.048953 C634.001249,140.048953 631.93385,140.457703 629.997299,141.275204 C628.060748,142.092705 626.359724,143.191222 624.894226,144.570756 C623.428727,145.950289 622.277265,147.559744 621.439837,149.399121 C620.60241,151.238499 620.183696,153.180064 620.183696,155.223817 C620.183696,157.369757 620.60241,159.33687 621.439837,161.125153 C622.277265,162.913437 623.428727,164.471798 624.894226,165.800238 C626.359724,167.128677 628.060748,168.1761 629.997299,168.942507 C631.93385,169.708915 634.001249,170.092118 636.199497,170.092118 Z M714.866891,170.92665 C724.25696,170.92665 732.55152,169.293943 739.750573,166.028527 C746.949625,162.763112 753.001004,158.331477 757.904706,152.733621 L757.904706,152.733621 L739.28107,135.318072 C736.881385,138.635319 733.699195,141.330582 729.734499,143.403862 C725.769804,145.477142 721.126936,146.513782 715.805897,146.513782 C711.215197,146.513782 706.989666,145.68447 703.129304,144.025847 C699.268943,142.367223 695.956335,140.060699 693.191482,137.106275 C690.426628,134.151851 688.261696,130.60136 686.696683,126.454801 C685.131672,122.308242 684.349166,117.747025 684.349166,112.771155 C684.349166,107.898947 685.131672,103.415479 686.696683,99.3207527 C688.261696,95.226025 690.452711,91.6755332 693.269732,88.6692782 C696.086753,85.6630223 699.451527,83.3046665 703.364056,81.5942107 C707.276584,79.883755 711.580366,79.0285271 716.2754,79.0285271 C720.553098,79.0285271 724.726463,79.857839 728.795493,81.5164627 C732.864523,83.1750865 736.151046,85.7148545 738.655065,89.1357657 L738.655065,89.1357657 L756.809198,71.0982322 C752.114164,65.8113689 745.984535,61.7943895 738.420313,59.0472938 C730.856091,56.3001982 723.161451,54.9266504 715.336394,54.9266504 C706.885332,54.9266504 699.008108,56.2742822 691.704721,58.9695458 C684.401334,61.6648095 678.036954,65.526293 672.611581,70.5539962 C667.186207,75.5816996 662.934592,81.6719587 659.856737,88.824774 C656.778881,95.977589 655.239953,103.959715 655.239953,112.771155 C655.239953,121.375266 656.752798,129.253728 659.778487,136.406543 C662.804175,143.559358 666.977539,149.70145 672.298578,154.832817 C677.619617,159.964184 683.905746,163.929331 691.156966,166.728259 C698.408186,169.527187 706.311494,170.92665 714.866891,170.92665 Z M822.096564,170.92665 C830.7226,170.92665 838.725069,169.527187 846.10396,166.728259 C853.48286,163.929331 859.848455,159.964184 865.200754,154.832817 C870.553054,149.70145 874.736161,143.533442 877.750078,136.328795 C880.763994,129.124149 882.270948,121.167938 882.270948,112.460162 C882.270948,103.648724 880.763994,95.6925125 877.750078,88.5915298 C874.736161,81.4905468 870.553054,75.4521196 865.200754,70.4762483 C859.848455,65.5003769 853.48286,61.6648095 846.10396,58.9695458 C838.725069,56.2742822 830.7226,54.9266504 822.096564,54.9266504 C813.47053,54.9266504 805.494046,56.2742822 798.167113,58.9695458 C790.840179,61.6648095 784.500564,65.5003769 779.148265,70.4762483 C773.795966,75.4521196 769.612859,81.4905468 766.598944,88.5915298 C763.585028,95.6925125 762.07807,103.648724 762.07807,112.460162 C762.07807,121.167938 763.585028,129.124149 766.598944,136.328795 C769.612859,143.533442 773.795966,149.70145 779.148265,154.832817 C784.500564,159.964184 790.840179,163.929331 798.167113,166.728259 C805.494046,169.527187 813.47053,170.92665 822.096564,170.92665 Z M821.67989,147.559744 C817.042819,147.559744 812.817932,146.696501 809.005229,144.970014 C805.192526,143.243527 801.920815,140.863068 799.190095,137.828637 C796.459376,134.794206 794.321171,131.15812 792.77548,126.92038 C791.22979,122.68264 790.456944,118.052517 790.456944,113.03001 C790.456944,108.216774 791.204029,103.717445 792.698196,99.5320234 C794.192363,95.3466006 796.330568,91.7628329 799.112811,88.7807194 C801.895053,85.7986059 805.192526,83.4443061 809.005229,81.7178193 C812.817932,79.9913326 817.042819,79.1280892 821.67989,79.1280892 C826.31696,79.1280892 830.567609,79.9913326 834.431835,81.7178193 C838.296064,83.4443061 841.593535,85.7986059 844.324256,88.7807194 C847.054976,91.7628329 849.193175,95.3466006 850.738869,99.5320234 C852.284555,103.717445 853.057406,108.216774 853.057406,113.03001 C853.057406,118.052517 852.284555,122.68264 850.738869,126.92038 C849.193175,131.15812 847.029214,134.794206 844.246968,137.828637 C841.464722,140.863068 838.167251,143.243527 834.35455,144.970014 C830.541847,146.696501 826.31696,147.559744 821.67989,147.559744 Z M924.046892,168.423054 L923.423727,89.8815339 L923.891096,89.8815339 L951.777839,168.423054 L970.472861,168.423054 L999.138554,89.8815339 L999.605932,89.8815339 L998.982759,168.423054 L1025,168.423054 L1025,57.4302475 L986.519414,57.4302475 L962.527478,128.603601 L961.904305,128.603601 L936.821819,57.4302475 L898.964406,57.4302475 L898.964406,168.423054 L924.046892,168.423054 Z" id="HEX.COM" fill="#000000"></path>
            </g>
        </g>
    </g>
</svg>