<?xml version="1.0" standalone="no"?>
<!DOCTYPE svg PUBLIC "-//W3C//DTD SVG 20010904//EN"
 "http://www.w3.org/TR/2001/REC-SVG-20010904/DTD/svg10.dtd">
<svg version="1.0" xmlns="http://www.w3.org/2000/svg"
 width="1280.000000pt" height="1274.000000pt" viewBox="0 0 1280.000000 1274.000000"
 preserveAspectRatio="xMidYMid meet">
<metadata>
Created by potrace 1.16, written by Peter Selinger 2001-2019
</metadata>
<g transform="translate(0.000000,1274.000000) scale(0.100000,-0.100000)"
fill="#000000" stroke="none">
<path d="M6170 12103 c-113 -70 -365 -223 -560 -341 -609 -368 -1677 -1015
-1864 -1128 -567 -345 -1094 -663 -1854 -1121 l-164 -98 7 -315 c4 -173 10
-344 14 -380 l6 -65 470 -260 c259 -144 837 -465 1285 -715 1231 -685 2827
-1573 2985 -1660 77 -42 277 -153 445 -247 168 -93 358 -198 422 -234 65 -35
118 -66 118 -69 0 -3 -100 -70 -223 -150 -122 -79 -334 -218 -472 -309 -137
-90 -259 -168 -271 -173 -20 -9 -445 223 -1964 1075 -69 38 -242 135 -385 214
-143 80 -284 158 -312 175 l-53 29 0 -633 0 -633 588 -352 c609 -365 1836
-1097 2025 -1209 l107 -63 163 101 c89 55 178 111 197 123 72 46 803 508 1235
780 231 145 308 194 416 263 36 23 70 42 76 42 6 0 107 -57 225 -126 209 -125
297 -176 461 -272 204 -121 257 -153 257 -160 0 -4 -223 -143 -496 -307 -272
-165 -559 -339 -637 -386 -78 -47 -230 -139 -337 -204 -107 -65 -321 -195
-475 -288 -154 -94 -305 -185 -335 -202 -30 -18 -140 -84 -245 -147 -104 -63
-313 -190 -463 -281 l-273 -165 -112 65 c-62 36 -184 107 -272 158 -88 51
-205 118 -260 150 -88 51 -325 186 -379 216 -10 6 -206 119 -435 252 -229 132
-441 255 -471 272 -123 71 -260 151 -347 201 -50 30 -93 54 -96 54 -2 0 -56
30 -118 66 -309 180 -1013 588 -1159 672 -91 52 -205 118 -255 147 -49 29
-220 128 -380 220 -159 92 -305 176 -324 188 l-34 20 7 -579 c3 -318 9 -653
12 -744 l6 -165 47 -26 c25 -15 100 -57 166 -94 157 -89 258 -146 320 -180 28
-15 79 -45 115 -65 36 -21 144 -81 240 -135 348 -193 946 -530 1220 -685 80
-45 226 -127 325 -182 99 -55 344 -193 545 -306 201 -113 419 -236 485 -273
66 -37 385 -216 709 -398 323 -182 592 -331 596 -331 7 0 431 245 1020 590
170 99 277 162 785 458 99 58 248 144 330 192 182 105 372 215 520 302 595
348 832 486 901 525 28 15 343 199 701 408 l651 380 6 90 c4 50 7 202 9 340
l2 250 -115 69 c-63 38 -225 138 -360 221 -135 84 -274 170 -310 192 -36 21
-486 298 -1000 615 -940 578 -1863 1145 -2800 1721 -278 171 -550 338 -605
372 -108 67 -292 180 -502 308 -73 45 -133 83 -133 87 1 3 80 53 178 111 97
59 282 170 410 248 128 77 237 141 242 141 6 0 177 -97 381 -216 204 -118 446
-259 538 -311 91 -53 191 -111 221 -128 30 -18 143 -83 250 -145 107 -62 292
-169 410 -238 118 -69 251 -146 295 -171 44 -26 240 -140 436 -254 196 -114
362 -207 368 -207 8 0 11 176 11 648 l0 648 -352 208 c-194 115 -472 280 -618
366 -298 177 -955 565 -1250 738 -325 191 -681 402 -757 449 l-72 44 -123 -80
c-68 -45 -168 -109 -223 -145 -55 -35 -218 -139 -361 -232 -884 -571 -1203
-774 -1214 -774 -14 0 -590 325 -927 523 -29 17 -53 34 -53 37 0 3 28 21 63
39 34 19 145 82 247 141 102 59 277 160 390 224 113 65 230 133 260 151 61 35
391 225 625 358 83 47 281 160 440 252 757 436 1124 645 1135 645 11 0 481
-280 2135 -1274 275 -165 569 -342 653 -393 84 -51 154 -93 157 -93 2 0 158
-93 347 -207 189 -114 618 -372 953 -573 l610 -367 6 111 c4 61 10 390 13 731
l8 620 -64 34 c-35 19 -162 89 -283 156 -202 112 -256 142 -355 198 -19 11
-92 50 -162 88 -70 38 -388 214 -705 390 -318 177 -708 393 -868 482 -159 88
-364 201 -455 252 -91 51 -460 256 -820 455 -360 199 -792 439 -958 531 -167
93 -309 169 -315 168 -7 0 -104 -57 -217 -126z"/>
</g>
</svg>
