<svg id="svg" version="1.1" xmlns="http://www.w3.org/2000/svg" xmlns:xlink="http://www.w3.org/1999/xlink" width="400" height="400" viewBox="0, 0, 400,400"><g id="svgg"><path id="path0" d="M118.894 37.481 C 118.372 37.582,118.102 37.841,118.256 38.090 C 118.414 38.346,118.337 38.409,118.070 38.243 C 117.821 38.089,117.208 38.190,116.708 38.467 C 115.785 38.980,115.552 39.061,114.747 39.150 C 114.498 39.178,113.653 39.875,112.869 40.700 C 112.086 41.525,111.582 41.930,111.750 41.600 C 111.919 41.270,111.321 41.792,110.421 42.760 C 109.522 43.727,108.868 44.601,108.969 44.702 C 109.069 44.803,108.794 45.270,108.356 45.739 C 107.120 47.066,105.549 50.090,105.782 50.696 C 105.897 50.996,105.822 51.137,105.615 51.010 C 105.409 50.882,105.045 51.143,104.806 51.589 C 104.567 52.035,104.508 52.400,104.675 52.400 C 104.842 52.400,104.566 52.689,104.062 53.042 C 103.558 53.394,103.237 53.919,103.348 54.208 C 103.459 54.497,103.291 54.833,102.975 54.954 C 102.659 55.076,102.400 55.541,102.400 55.987 C 102.400 56.434,102.265 56.801,102.100 56.803 C 101.593 56.807,100.380 59.244,100.660 59.697 C 100.811 59.942,100.735 60.007,100.482 59.851 C 100.239 59.700,99.845 59.943,99.606 60.389 C 99.367 60.835,99.313 61.203,99.486 61.206 C 99.659 61.209,99.610 61.344,99.379 61.506 C 98.824 61.894,97.063 64.800,97.384 64.800 C 97.520 64.800,97.173 65.295,96.612 65.900 C 96.050 66.505,95.298 67.765,94.941 68.700 C 94.584 69.635,94.117 70.400,93.903 70.400 C 93.689 70.400,93.622 70.679,93.753 71.021 C 93.889 71.377,93.822 71.537,93.595 71.397 C 93.378 71.263,93.200 71.343,93.200 71.576 C 93.200 72.359,93.082 72.598,92.479 73.039 C 92.113 73.306,92.004 73.683,92.201 74.001 C 92.414 74.346,92.367 74.427,92.062 74.238 C 91.658 73.989,91.557 74.162,91.614 75.014 C 91.622 75.132,91.397 75.486,91.114 75.800 C 90.091 76.938,89.754 77.438,88.488 79.694 C 87.779 80.956,87.200 82.183,87.200 82.423 C 87.200 82.662,86.928 83.129,86.596 83.461 C 86.264 83.793,86.098 84.234,86.226 84.442 C 86.354 84.650,86.221 84.770,85.930 84.710 C 85.637 84.649,85.425 84.911,85.455 85.296 C 85.485 85.678,85.363 85.901,85.184 85.790 C 85.004 85.679,84.731 85.996,84.576 86.494 C 84.422 86.992,83.959 87.878,83.548 88.462 C 83.136 89.046,82.800 89.721,82.800 89.962 C 82.800 90.203,82.445 90.755,82.010 91.190 C 81.576 91.624,81.100 92.479,80.954 93.090 C 80.807 93.700,80.349 94.526,79.935 94.924 C 79.521 95.322,79.277 95.802,79.394 95.990 C 79.510 96.178,79.469 96.392,79.302 96.466 C 78.777 96.699,77.120 99.253,77.346 99.480 C 77.466 99.599,76.944 100.507,76.188 101.497 C 75.432 102.487,74.911 103.456,75.030 103.649 C 75.150 103.842,75.046 104.000,74.800 104.000 C 74.554 104.000,74.464 104.180,74.600 104.400 C 74.736 104.620,74.660 104.800,74.432 104.800 C 73.954 104.800,72.224 107.994,72.692 108.012 C 72.861 108.019,72.668 108.217,72.262 108.453 C 71.448 108.926,69.936 111.973,70.257 112.492 C 70.368 112.672,70.234 112.770,69.959 112.710 C 69.683 112.649,69.265 113.132,69.029 113.783 C 68.793 114.434,68.189 115.412,67.686 115.957 C 67.183 116.502,66.862 117.185,66.973 117.474 C 67.084 117.763,66.990 118.000,66.764 118.000 C 66.538 118.000,66.465 118.181,66.602 118.403 C 66.739 118.624,66.593 118.904,66.279 119.025 C 65.964 119.146,65.368 119.952,64.954 120.818 C 64.539 121.683,64.046 122.393,63.857 122.395 C 63.669 122.398,63.622 122.679,63.753 123.021 C 63.884 123.362,63.827 123.541,63.628 123.417 C 63.428 123.294,63.042 123.869,62.771 124.696 C 62.500 125.523,61.945 126.435,61.539 126.723 C 61.132 127.010,60.800 127.492,60.800 127.794 C 60.800 128.096,60.519 128.624,60.175 128.967 C 59.832 129.311,59.524 129.954,59.490 130.396 C 59.457 130.838,59.277 131.200,59.091 131.200 C 58.905 131.200,58.855 131.365,58.979 131.566 C 59.103 131.767,59.066 131.992,58.895 132.066 C 58.272 132.336,56.817 134.504,57.029 134.847 C 57.149 135.041,57.046 135.200,56.800 135.200 C 56.554 135.200,56.464 135.380,56.600 135.600 C 56.736 135.820,56.661 136.000,56.434 136.000 C 56.207 136.000,55.741 136.540,55.400 137.200 C 55.059 137.860,54.887 138.400,55.018 138.400 C 55.150 138.400,54.973 138.685,54.625 139.032 C 54.277 139.380,54.112 139.858,54.258 140.094 C 54.404 140.330,54.339 140.410,54.114 140.271 C 53.889 140.131,53.257 140.881,52.709 141.936 C 52.162 142.991,51.398 144.337,51.011 144.927 C 50.624 145.517,50.419 146.000,50.554 146.000 C 50.689 146.000,50.433 146.367,49.985 146.815 C 49.537 147.263,49.278 147.803,49.409 148.015 C 49.540 148.227,49.446 148.400,49.200 148.400 C 48.954 148.400,48.864 148.580,49.000 148.800 C 49.136 149.020,49.057 149.200,48.824 149.200 C 48.591 149.200,48.400 149.590,48.400 150.067 C 48.400 150.543,48.281 150.815,48.136 150.670 C 47.852 150.385,44.801 155.113,44.800 155.839 C 44.800 156.080,44.434 156.700,43.987 157.215 C 43.539 157.731,43.267 158.398,43.382 158.697 C 43.503 159.012,43.413 159.131,43.168 158.981 C 42.936 158.837,42.647 159.098,42.526 159.560 C 42.406 160.022,42.167 160.400,41.997 160.400 C 41.826 160.400,41.582 160.818,41.454 161.329 C 41.325 161.840,40.794 162.887,40.273 163.654 C 38.767 165.874,36.357 170.400,36.682 170.400 C 36.845 170.400,36.566 170.689,36.062 171.042 C 35.558 171.394,35.237 171.919,35.348 172.208 C 35.459 172.497,35.291 172.833,34.975 172.954 C 34.659 173.076,34.400 173.661,34.400 174.254 C 34.400 174.848,34.280 175.214,34.134 175.068 C 33.777 174.711,32.006 177.686,32.296 178.155 C 32.421 178.358,32.316 178.395,32.062 178.238 C 31.649 177.983,31.420 178.461,31.553 179.300 C 31.579 179.465,31.420 179.600,31.200 179.600 C 30.980 179.600,30.800 179.797,30.800 180.037 C 30.800 180.277,30.442 180.928,30.005 181.484 C 29.568 182.039,29.309 182.653,29.429 182.847 C 29.549 183.041,29.477 183.200,29.270 183.200 C 28.636 183.200,27.522 185.225,27.314 186.754 C 26.560 192.316,26.943 198.468,28.102 199.401 C 28.376 199.622,28.659 200.072,28.731 200.401 C 28.804 200.731,29.299 201.573,29.831 202.273 C 30.364 202.974,30.806 203.784,30.813 204.073 C 30.830 204.771,31.809 206.040,32.140 205.794 C 32.283 205.687,32.318 205.712,32.217 205.850 C 31.950 206.214,33.546 209.200,34.008 209.200 C 34.224 209.200,34.400 209.535,34.400 209.944 C 34.400 210.714,36.159 213.576,36.951 214.094 C 37.198 214.256,37.248 214.391,37.062 214.394 C 36.634 214.402,38.728 218.021,39.571 218.730 C 39.938 219.038,39.969 219.140,39.646 218.973 C 39.341 218.815,39.521 219.296,40.046 220.043 C 40.571 220.789,41.125 221.457,41.278 221.526 C 41.430 221.595,41.465 221.887,41.355 222.174 C 41.244 222.462,41.399 222.945,41.699 223.248 C 41.999 223.552,42.364 224.115,42.510 224.500 C 42.656 224.885,42.971 225.200,43.211 225.200 C 43.451 225.200,43.545 225.365,43.420 225.568 C 43.295 225.770,43.425 226.175,43.710 226.468 C 43.994 226.760,44.724 228.024,45.331 229.275 C 46.523 231.732,48.386 232.452,48.744 230.594 C 48.828 230.159,49.445 229.007,50.115 228.033 C 50.785 227.059,51.333 226.023,51.333 225.731 C 51.333 225.439,51.465 225.200,51.626 225.200 C 51.787 225.200,52.295 224.480,52.753 223.600 C 53.212 222.720,53.460 222.000,53.305 222.000 C 53.149 222.000,53.434 221.711,53.938 221.358 C 54.442 221.006,54.763 220.481,54.652 220.192 C 54.541 219.903,54.728 219.560,55.067 219.430 C 55.413 219.297,55.583 218.932,55.454 218.597 C 55.328 218.268,55.374 218.000,55.556 218.000 C 55.985 218.000,58.933 213.227,58.933 212.532 C 58.933 212.239,59.094 212.000,59.290 212.000 C 59.487 212.000,59.543 211.831,59.415 211.625 C 59.288 211.418,59.433 211.103,59.737 210.925 C 60.042 210.746,60.609 209.979,60.998 209.220 C 61.386 208.460,61.950 207.592,62.252 207.291 C 62.553 206.990,62.797 206.531,62.794 206.271 C 62.790 205.995,62.627 206.048,62.400 206.400 C 62.163 206.767,62.010 206.814,62.006 206.520 C 62.003 206.256,62.232 205.896,62.515 205.720 C 63.307 205.229,65.608 201.537,65.367 201.146 C 65.249 200.956,65.353 200.800,65.597 200.800 C 65.983 200.800,67.248 198.397,67.187 197.780 C 67.175 197.657,67.519 197.251,67.952 196.878 C 68.723 196.214,70.635 192.773,70.877 191.614 C 70.945 191.292,71.303 190.752,71.674 190.414 C 72.394 189.758,74.934 185.200,74.579 185.200 C 74.463 185.200,74.827 184.705,75.388 184.100 C 75.950 183.495,76.702 182.235,77.059 181.300 C 77.416 180.365,77.852 179.600,78.027 179.600 C 78.203 179.600,78.456 179.254,78.590 178.830 C 78.725 178.407,79.280 177.404,79.824 176.603 C 80.368 175.801,80.710 174.977,80.583 174.772 C 80.456 174.568,80.543 174.400,80.776 174.400 C 81.009 174.400,81.200 174.139,81.200 173.820 C 81.200 173.501,81.446 173.096,81.746 172.920 C 82.309 172.590,83.785 170.000,83.410 170.000 C 83.295 170.000,83.560 169.640,84.000 169.200 C 84.440 168.760,84.800 168.040,84.800 167.600 C 84.800 167.160,84.980 166.800,85.200 166.800 C 85.420 166.800,85.600 166.429,85.600 165.976 C 85.600 165.523,85.773 165.260,85.985 165.391 C 86.496 165.707,88.108 162.509,87.751 161.886 C 87.597 161.619,87.618 161.532,87.796 161.694 C 88.183 162.044,89.166 160.852,89.194 160.000 C 89.205 159.670,89.669 158.968,90.226 158.439 C 90.783 157.911,91.146 157.236,91.032 156.939 C 90.918 156.643,90.999 156.400,91.213 156.400 C 91.426 156.400,91.600 156.145,91.600 155.833 C 91.600 155.522,91.766 155.207,91.970 155.133 C 92.173 155.060,92.398 154.730,92.470 154.400 C 92.541 154.070,92.691 153.710,92.801 153.600 C 93.391 153.014,95.200 150.097,95.200 149.732 C 95.200 149.499,95.550 148.862,95.979 148.318 C 96.407 147.774,96.812 147.079,96.879 146.774 C 96.945 146.469,97.227 145.975,97.504 145.677 C 97.781 145.379,97.888 144.942,97.742 144.706 C 97.595 144.468,97.662 144.391,97.892 144.533 C 98.294 144.781,99.491 142.519,99.291 141.889 C 99.237 141.718,99.472 141.471,99.813 141.340 C 100.581 141.045,102.070 138.215,101.683 137.785 C 101.527 137.613,101.625 137.601,101.900 137.759 C 102.175 137.918,102.400 137.899,102.400 137.718 C 102.400 137.537,103.109 136.951,103.975 136.416 C 104.841 135.880,105.443 135.270,105.313 135.059 C 105.183 134.849,105.269 134.795,105.505 134.941 C 105.740 135.087,106.413 135.023,106.999 134.800 C 108.200 134.344,232.000 134.015,232.000 134.468 C 232.000 134.616,232.525 134.852,233.166 134.993 C 233.807 135.133,234.831 135.677,235.441 136.202 C 236.051 136.726,236.661 137.086,236.796 137.002 C 236.932 136.918,237.630 137.919,238.348 139.225 C 239.067 140.531,239.822 141.600,240.027 141.600 C 240.232 141.600,240.400 141.870,240.400 142.200 C 240.400 142.530,240.610 142.800,240.867 142.800 C 241.123 142.800,241.221 142.913,241.083 143.051 C 240.743 143.390,241.915 145.600,242.434 145.600 C 242.661 145.600,242.736 145.780,242.600 146.000 C 242.464 146.220,242.543 146.400,242.776 146.400 C 243.009 146.400,243.179 146.535,243.153 146.700 C 243.042 147.398,243.234 147.976,243.744 148.487 C 244.043 148.786,244.677 149.834,245.153 150.815 C 246.304 153.189,246.936 154.245,247.736 155.129 C 248.101 155.533,248.400 156.074,248.400 156.331 C 248.400 156.589,248.610 156.800,248.867 156.800 C 249.123 156.800,249.216 156.917,249.073 157.060 C 248.930 157.204,249.125 157.577,249.506 157.890 C 249.888 158.203,249.975 158.345,249.700 158.206 C 249.425 158.067,249.200 158.041,249.200 158.148 C 249.200 158.255,249.425 158.583,249.700 158.878 C 249.975 159.172,250.543 160.084,250.963 160.906 C 251.383 161.728,251.878 162.400,252.063 162.400 C 252.248 162.400,252.400 162.740,252.400 163.155 C 252.400 163.570,253.005 164.790,253.744 165.864 C 254.484 166.939,255.216 168.219,255.371 168.709 C 255.527 169.199,255.822 169.600,256.027 169.600 C 256.232 169.600,256.400 169.870,256.400 170.200 C 256.400 170.530,256.591 170.800,256.824 170.800 C 257.057 170.800,257.140 170.973,257.010 171.184 C 256.879 171.396,257.412 172.247,258.194 173.076 C 258.976 173.905,259.524 174.822,259.412 175.113 C 259.209 175.642,260.463 177.713,261.600 178.725 C 262.133 179.200,262.133 179.226,261.600 178.961 C 261.121 178.723,261.133 178.818,261.660 179.431 C 262.023 179.854,262.597 180.871,262.936 181.691 C 263.275 182.511,263.788 183.462,264.076 183.805 C 265.229 185.176,265.405 185.442,265.530 186.010 C 265.601 186.334,265.826 186.660,266.030 186.733 C 266.233 186.807,266.400 187.122,266.400 187.433 C 266.400 187.745,266.591 188.000,266.824 188.000 C 267.057 188.000,267.140 188.174,267.008 188.387 C 266.876 188.600,267.406 189.700,268.184 190.832 C 268.963 191.964,269.600 193.060,269.600 193.268 C 269.600 193.477,269.743 193.559,269.917 193.451 C 270.091 193.344,270.263 193.644,270.299 194.120 C 270.335 194.595,270.639 195.186,270.976 195.432 C 271.312 195.678,271.480 195.987,271.348 196.118 C 271.217 196.250,271.506 196.862,271.991 197.479 C 272.476 198.096,273.117 199.185,273.416 199.900 C 273.715 200.615,274.148 201.200,274.380 201.200 C 274.611 201.200,274.800 201.528,274.800 201.929 C 274.800 202.330,275.335 203.365,275.989 204.229 C 276.643 205.093,277.183 206.105,277.189 206.477 C 277.195 206.850,277.559 207.406,277.997 207.713 C 278.436 208.020,278.676 208.391,278.531 208.536 C 278.386 208.681,278.477 208.800,278.733 208.800 C 278.990 208.800,279.164 208.935,279.121 209.100 C 278.987 209.605,279.634 211.200,279.973 211.200 C 280.148 211.200,280.584 211.965,280.941 212.900 C 281.298 213.835,281.998 215.057,282.495 215.615 C 282.993 216.173,283.433 216.803,283.473 217.015 C 283.648 217.940,285.886 221.580,286.130 221.336 C 286.279 221.188,286.400 221.335,286.400 221.662 C 286.400 222.511,288.782 226.800,289.254 226.800 C 289.470 226.800,289.540 226.973,289.409 227.185 C 289.278 227.397,289.522 227.922,289.952 228.352 C 290.382 228.782,290.660 229.207,290.570 229.296 C 290.481 229.386,291.036 230.503,291.804 231.778 C 292.572 233.053,293.200 234.245,293.200 234.426 C 293.200 234.607,293.515 234.990,293.900 235.277 C 294.285 235.565,294.659 236.070,294.730 236.400 C 294.802 236.730,295.016 237.057,295.208 237.126 C 295.399 237.195,295.464 237.490,295.352 237.782 C 295.240 238.073,295.618 238.782,296.192 239.356 C 296.767 239.930,297.126 240.400,296.991 240.400 C 296.856 240.400,297.094 240.895,297.520 241.500 C 297.946 242.105,298.421 243.005,298.574 243.500 C 298.728 243.995,298.977 244.400,299.127 244.401 C 299.277 244.401,299.447 245.060,299.505 245.866 C 299.563 246.671,299.815 247.577,300.065 247.879 C 300.408 248.291,300.393 248.665,300.007 249.387 C 299.724 249.915,299.590 250.720,299.709 251.174 C 299.828 251.629,299.781 251.912,299.605 251.803 C 299.428 251.694,299.175 251.888,299.042 252.235 C 298.679 253.181,298.762 253.478,299.200 252.800 C 299.471 252.380,299.590 252.354,299.594 252.713 C 299.597 252.994,299.330 253.329,299.000 253.455 C 298.670 253.582,298.400 253.917,298.400 254.200 C 298.400 254.483,298.111 254.825,297.758 254.961 C 297.392 255.101,297.215 255.463,297.346 255.803 C 297.472 256.132,297.408 256.400,297.204 256.400 C 296.696 256.400,294.769 259.756,294.692 260.774 C 294.658 261.228,294.477 261.600,294.291 261.600 C 294.105 261.600,294.067 261.784,294.206 262.010 C 294.345 262.235,294.238 262.370,293.967 262.310 C 293.695 262.249,293.187 262.740,292.837 263.400 C 292.487 264.060,292.089 264.690,291.954 264.800 C 291.819 264.910,291.594 265.365,291.455 265.812 C 291.316 266.259,290.569 267.607,289.795 268.808 C 289.021 270.009,288.479 271.228,288.589 271.517 C 288.700 271.805,288.620 271.936,288.411 271.807 C 288.202 271.677,287.640 272.343,287.162 273.286 C 286.684 274.229,286.182 275.090,286.046 275.200 C 285.466 275.671,284.400 277.993,284.400 278.785 C 284.400 279.259,284.239 279.548,284.042 279.426 C 283.715 279.224,283.519 279.490,283.179 280.600 C 283.112 280.820,282.818 281.240,282.525 281.532 C 282.232 281.825,282.113 282.275,282.260 282.532 C 282.408 282.790,282.378 282.864,282.194 282.697 C 281.860 282.393,279.525 286.175,279.487 287.082 C 279.476 287.348,279.317 287.472,279.133 287.359 C 278.829 287.171,278.635 287.754,278.753 288.500 C 278.779 288.665,278.618 288.800,278.395 288.800 C 278.172 288.800,277.587 289.655,277.095 290.700 C 276.603 291.745,276.055 292.706,275.879 292.837 C 275.702 292.967,275.612 293.269,275.679 293.508 C 275.745 293.748,275.477 294.185,275.082 294.479 C 274.687 294.774,274.335 295.405,274.299 295.880 C 274.263 296.356,274.091 296.656,273.917 296.549 C 273.743 296.441,273.600 296.504,273.600 296.690 C 273.600 296.875,272.977 297.994,272.215 299.176 C 271.454 300.358,270.924 301.477,271.039 301.663 C 271.153 301.848,271.046 302.000,270.800 302.000 C 270.554 302.000,270.464 302.180,270.600 302.400 C 270.736 302.620,270.675 302.800,270.464 302.800 C 270.253 302.800,269.695 303.541,269.223 304.446 C 268.751 305.352,268.103 306.355,267.782 306.675 C 267.462 306.995,267.203 307.469,267.206 307.729 C 267.210 308.005,267.373 307.952,267.600 307.600 C 267.844 307.223,267.990 307.181,267.994 307.486 C 267.997 307.753,267.640 308.165,267.200 308.400 C 266.760 308.635,266.400 309.182,266.400 309.614 C 266.400 310.046,266.225 310.400,266.010 310.400 C 265.796 310.400,265.341 310.940,265.000 311.600 C 264.659 312.260,264.465 312.800,264.571 312.800 C 264.676 312.800,264.320 313.276,263.781 313.858 C 263.241 314.441,262.800 315.341,262.800 315.858 C 262.800 316.376,262.638 316.800,262.440 316.800 C 262.016 316.800,260.289 319.580,260.276 320.282 C 260.271 320.548,260.131 320.681,259.966 320.579 C 259.663 320.392,258.565 323.139,258.718 323.700 C 258.763 323.865,258.608 323.955,258.374 323.900 C 258.139 323.845,257.331 324.925,256.578 326.300 C 255.825 327.675,255.304 328.800,255.420 328.800 C 255.536 328.800,255.249 329.205,254.782 329.700 C 253.685 330.862,252.761 332.628,253.083 332.949 C 253.221 333.087,253.123 333.200,252.867 333.200 C 252.610 333.200,252.400 333.470,252.400 333.800 C 252.400 334.130,252.201 334.400,251.957 334.400 C 251.714 334.400,251.622 334.679,251.753 335.021 C 251.889 335.377,251.822 335.537,251.595 335.397 C 251.378 335.263,251.200 335.504,251.200 335.934 C 251.200 336.363,250.921 336.822,250.580 336.952 C 250.238 337.083,249.594 338.015,249.148 339.023 C 248.702 340.032,247.900 341.502,247.364 342.290 C 246.829 343.079,246.476 343.809,246.579 343.912 C 246.682 344.015,246.384 344.409,245.916 344.787 C 245.365 345.234,245.159 345.716,245.330 346.162 C 245.797 347.379,286.106 346.953,287.845 345.712 C 288.530 345.223,289.205 344.938,289.345 345.078 C 289.485 345.219,289.600 345.129,289.600 344.879 C 289.600 344.629,289.851 344.522,290.158 344.639 C 290.466 344.757,290.961 344.506,291.258 344.081 C 291.556 343.655,291.980 343.265,292.200 343.214 C 292.420 343.162,292.551 342.945,292.490 342.730 C 292.430 342.516,292.549 342.445,292.755 342.572 C 293.567 343.074,297.903 337.214,297.364 336.342 C 297.241 336.143,297.366 336.030,297.641 336.090 C 297.917 336.151,298.335 335.660,298.570 335.000 C 298.806 334.340,299.314 333.451,299.699 333.025 C 300.324 332.334,300.545 331.796,300.326 331.500 C 300.286 331.445,300.747 330.867,301.351 330.215 C 301.955 329.564,302.370 328.729,302.274 328.362 C 302.178 327.994,302.437 327.404,302.850 327.050 C 303.262 326.697,303.600 326.125,303.600 325.780 C 303.600 325.435,303.750 325.246,303.934 325.359 C 304.303 325.587,305.755 322.821,305.434 322.501 C 305.324 322.391,305.631 321.969,306.117 321.564 C 306.603 321.158,306.858 320.821,306.684 320.813 C 306.511 320.806,306.559 320.575,306.792 320.300 C 308.419 318.378,308.816 317.764,309.214 316.559 C 309.460 315.812,309.816 315.200,310.004 315.200 C 310.310 315.200,311.026 313.570,310.844 313.286 C 310.804 313.223,311.050 312.893,311.389 312.553 C 311.729 312.214,311.888 311.742,311.742 311.506 C 311.584 311.251,311.664 311.193,311.939 311.362 C 312.224 311.539,312.559 311.218,312.813 310.524 C 313.039 309.906,313.337 309.130,313.475 308.800 C 313.614 308.470,313.698 308.065,313.664 307.900 C 313.629 307.735,313.812 307.645,314.071 307.700 C 314.330 307.755,314.735 307.263,314.971 306.606 C 315.207 305.950,315.715 305.095,316.100 304.706 C 316.485 304.318,316.800 303.744,316.800 303.431 C 316.800 303.118,317.263 302.311,317.829 301.639 C 318.394 300.967,318.744 300.233,318.605 300.008 C 318.466 299.784,318.531 299.600,318.749 299.600 C 319.159 299.600,319.827 298.054,319.669 297.470 C 319.620 297.289,319.744 297.242,319.944 297.365 C 320.144 297.489,320.528 297.057,320.798 296.406 C 321.067 295.755,321.719 294.722,322.246 294.111 C 322.773 293.500,323.119 292.775,323.015 292.500 C 322.910 292.225,323.010 292.000,323.236 292.000 C 323.462 292.000,323.543 291.831,323.415 291.625 C 323.288 291.418,323.433 291.103,323.737 290.925 C 324.042 290.746,324.611 289.970,325.002 289.200 C 325.393 288.430,326.035 287.387,326.429 286.881 C 326.823 286.376,327.261 285.431,327.404 284.781 C 327.547 284.132,327.825 283.600,328.022 283.600 C 328.218 283.600,328.659 283.060,329.000 282.400 C 329.341 281.740,329.526 281.200,329.410 281.200 C 329.295 281.200,329.551 280.849,329.979 280.421 C 330.407 279.993,330.956 278.907,331.198 278.009 C 331.439 277.111,331.807 276.481,332.015 276.609 C 332.223 276.738,332.709 276.158,333.096 275.321 C 333.483 274.485,334.025 273.562,334.300 273.271 C 334.575 272.981,334.800 272.521,334.800 272.250 C 334.800 271.979,335.353 271.006,336.029 270.087 C 336.704 269.168,337.144 268.233,337.005 268.008 C 336.866 267.784,336.905 267.600,337.090 267.600 C 337.526 267.600,338.949 265.204,338.523 265.188 C 338.345 265.181,338.515 264.992,338.900 264.768 C 339.285 264.544,339.600 264.099,339.600 263.780 C 339.600 263.461,339.768 263.200,339.973 263.200 C 340.353 263.200,341.023 261.646,340.879 261.100 C 340.836 260.935,340.980 260.800,341.200 260.800 C 341.420 260.800,341.600 260.613,341.600 260.384 C 341.600 260.155,341.993 259.390,342.474 258.684 C 342.955 257.978,343.683 256.901,344.092 256.291 C 344.502 255.682,344.711 254.979,344.557 254.730 C 344.372 254.431,344.457 254.388,344.806 254.604 C 345.191 254.842,345.266 254.749,345.081 254.266 C 344.940 253.900,344.957 253.600,345.118 253.600 C 345.518 253.600,347.425 250.424,347.300 249.967 C 347.245 249.765,347.375 249.600,347.590 249.600 C 348.092 249.600,349.248 247.381,348.917 247.051 C 348.779 246.913,348.877 246.800,349.133 246.800 C 349.390 246.800,349.600 246.410,349.600 245.933 C 349.600 245.457,349.719 245.186,349.864 245.331 C 350.009 245.476,350.343 245.281,350.605 244.897 C 351.682 243.324,353.200 240.333,353.200 239.786 C 353.200 239.464,353.362 239.200,353.560 239.200 C 354.051 239.200,355.660 236.421,355.407 236.011 C 355.296 235.831,355.482 235.577,355.821 235.447 C 356.160 235.317,356.389 234.983,356.330 234.705 C 356.271 234.427,356.719 233.672,357.326 233.026 C 357.932 232.380,358.334 231.606,358.219 231.305 C 358.104 231.005,358.166 230.856,358.358 230.974 C 358.550 231.093,358.938 230.607,359.219 229.895 C 359.501 229.183,359.980 228.308,360.283 227.950 C 360.586 227.593,360.781 227.136,360.717 226.935 C 360.653 226.734,361.104 226.064,361.720 225.446 C 362.337 224.828,362.772 224.117,362.688 223.865 C 362.604 223.613,362.777 223.166,363.072 222.871 C 363.366 222.577,363.517 222.189,363.406 222.010 C 363.295 221.830,363.447 221.591,363.744 221.477 C 364.445 221.208,366.028 218.171,365.673 217.775 C 365.523 217.608,365.607 217.590,365.861 217.735 C 366.233 217.948,367.005 216.596,367.192 215.403 C 367.208 215.302,367.621 214.785,368.110 214.255 C 369.113 213.168,371.600 208.479,371.600 207.676 C 371.600 207.388,371.767 207.256,371.971 207.382 C 372.300 207.586,372.621 207.022,372.873 205.800 C 372.918 205.580,373.280 205.051,373.678 204.625 C 374.075 204.198,374.400 203.703,374.400 203.525 C 374.400 202.906,374.546 202.597,375.099 202.044 C 376.102 201.040,376.911 199.586,377.078 198.483 C 377.168 197.888,377.309 196.972,377.391 196.450 C 377.473 195.927,377.734 195.306,377.970 195.070 C 378.486 194.554,378.551 189.340,378.045 189.028 C 377.673 188.798,377.014 186.123,377.139 185.349 C 377.180 185.101,376.693 184.342,376.059 183.663 C 375.424 182.984,374.986 182.347,375.085 182.248 C 375.413 181.921,374.367 180.373,373.980 180.612 C 373.771 180.742,373.585 180.702,373.567 180.524 C 373.391 178.815,373.250 178.336,372.660 177.436 C 372.287 176.866,371.776 176.400,371.524 176.400 C 371.273 176.400,371.174 176.292,371.306 176.160 C 371.626 175.840,370.024 172.800,369.536 172.800 C 369.325 172.800,369.264 172.620,369.400 172.400 C 369.536 172.180,369.427 172.000,369.157 172.000 C 368.887 172.000,368.779 171.887,368.917 171.749 C 369.234 171.432,368.255 169.510,367.426 168.822 C 367.082 168.536,366.800 168.047,366.800 167.735 C 366.800 167.146,365.228 164.701,364.698 164.466 C 364.531 164.392,364.493 164.174,364.612 163.980 C 364.731 163.787,364.489 163.289,364.072 162.872 C 363.656 162.456,363.195 161.635,363.048 161.048 C 362.900 160.460,362.424 159.624,361.990 159.190 C 361.555 158.755,361.194 158.175,361.187 157.900 C 361.168 157.130,360.161 155.976,359.796 156.306 C 359.618 156.468,359.592 156.390,359.740 156.132 C 359.887 155.875,359.744 155.401,359.423 155.080 C 359.101 154.758,358.934 154.399,359.051 154.282 C 359.434 153.899,358.372 152.370,357.918 152.651 C 357.663 152.808,357.589 152.742,357.742 152.494 C 357.888 152.258,357.736 151.793,357.404 151.461 C 357.072 151.129,356.800 150.585,356.800 150.252 C 356.800 149.919,356.621 149.536,356.401 149.401 C 356.182 149.265,355.620 148.265,355.152 147.177 C 354.684 146.090,354.171 145.200,354.011 145.200 C 353.852 145.200,353.399 144.485,353.005 143.611 C 352.611 142.737,352.106 142.135,351.882 142.273 C 351.634 142.426,351.602 142.321,351.799 142.001 C 352.004 141.671,351.843 141.274,351.361 140.922 C 350.942 140.616,350.645 140.283,350.700 140.183 C 350.979 139.673,350.743 139.188,350.338 139.438 C 350.051 139.616,349.985 139.548,350.164 139.259 C 350.322 139.003,350.215 138.531,349.926 138.211 C 348.712 136.864,348.460 136.474,348.670 136.264 C 348.971 135.963,347.234 133.200,346.744 133.200 C 346.529 133.200,346.451 133.041,346.571 132.847 C 346.691 132.653,346.432 132.039,345.995 131.484 C 345.558 130.928,345.200 130.277,345.200 130.037 C 345.200 129.797,344.990 129.600,344.733 129.600 C 344.477 129.600,344.380 129.486,344.519 129.347 C 344.928 128.938,344.001 127.552,343.518 127.851 C 343.260 128.010,343.189 127.941,343.347 127.686 C 343.665 127.171,342.255 124.679,341.865 125.068 C 341.598 125.335,341.448 124.634,341.571 123.695 C 341.608 123.417,341.370 123.087,341.044 122.962 C 340.718 122.836,340.541 122.497,340.652 122.208 C 340.763 121.919,340.442 121.394,339.938 121.042 C 339.434 120.689,339.155 120.400,339.318 120.400 C 339.643 120.400,337.233 115.874,335.727 113.654 C 335.206 112.887,334.675 111.840,334.546 111.329 C 334.418 110.818,334.052 110.400,333.733 110.400 C 333.414 110.400,333.261 110.225,333.393 110.011 C 333.628 109.631,332.709 107.922,331.705 106.871 C 331.427 106.581,331.200 106.131,331.200 105.871 C 331.199 105.123,328.156 100.377,327.864 100.670 C 327.719 100.815,327.600 100.543,327.600 100.067 C 327.600 99.590,327.409 99.200,327.176 99.200 C 326.943 99.200,326.864 99.020,327.000 98.800 C 327.136 98.580,327.046 98.400,326.800 98.400 C 326.554 98.400,326.460 98.227,326.591 98.015 C 326.722 97.803,326.463 97.263,326.015 96.815 C 325.567 96.367,325.311 96.000,325.446 96.000 C 325.581 96.000,325.376 95.517,324.989 94.927 C 324.602 94.337,323.838 92.991,323.291 91.936 C 322.743 90.881,322.111 90.131,321.886 90.271 C 321.661 90.410,321.596 90.330,321.742 90.094 C 321.888 89.858,321.723 89.380,321.375 89.032 C 321.027 88.685,320.857 88.400,320.997 88.400 C 321.137 88.400,320.847 87.680,320.352 86.800 C 319.857 85.920,319.306 85.200,319.126 85.200 C 318.947 85.200,318.821 85.065,318.847 84.900 C 318.971 84.115,318.727 83.563,317.882 82.718 C 317.377 82.213,316.925 81.620,316.877 81.400 C 316.627 80.246,316.238 79.380,315.747 78.890 C 315.446 78.589,315.200 78.114,315.200 77.833 C 315.200 77.553,314.847 77.004,314.415 76.614 C 313.983 76.223,313.429 75.293,313.183 74.548 C 312.921 73.755,312.557 73.303,312.306 73.458 C 312.038 73.624,311.994 73.533,312.189 73.217 C 312.362 72.938,312.344 72.596,312.151 72.455 C 311.958 72.315,311.459 71.530,311.043 70.711 C 310.627 69.893,310.132 69.318,309.943 69.435 C 309.631 69.628,309.434 69.054,309.553 68.300 C 309.579 68.135,309.426 68.000,309.213 68.000 C 308.999 68.000,308.916 67.763,309.027 67.474 C 309.138 67.185,308.781 66.465,308.234 65.874 C 307.686 65.283,307.324 64.800,307.429 64.800 C 307.535 64.800,307.338 64.254,306.993 63.587 C 306.629 62.883,306.179 62.489,305.921 62.649 C 305.677 62.800,305.582 62.753,305.711 62.544 C 306.057 61.984,304.594 58.951,303.738 58.453 C 303.332 58.217,303.146 58.019,303.325 58.012 C 303.753 57.996,301.573 54.000,301.136 54.000 C 300.951 54.000,300.821 53.865,300.847 53.700 C 300.968 52.937,300.717 52.414,299.641 51.181 C 299.003 50.450,298.565 49.635,298.668 49.368 C 298.770 49.101,298.527 48.639,298.127 48.342 C 297.727 48.044,297.341 47.532,297.268 47.204 C 297.195 46.876,296.955 46.496,296.734 46.359 C 296.513 46.222,296.347 45.996,296.366 45.855 C 296.473 45.053,296.337 44.800,295.800 44.800 C 295.470 44.800,295.200 44.462,295.200 44.049 C 295.200 43.152,294.275 42.286,293.763 42.703 C 293.563 42.867,293.535 42.835,293.701 42.632 C 294.044 42.214,292.907 40.800,292.227 40.800 C 291.980 40.800,291.438 40.403,291.023 39.918 C 290.288 39.060,290.260 39.057,289.962 39.818 C 289.685 40.526,289.654 40.510,289.628 39.651 C 289.604 38.847,289.507 38.780,288.991 39.208 C 288.477 39.634,288.424 39.602,288.655 39.002 C 288.849 38.495,288.766 38.345,288.364 38.481 C 288.054 38.585,287.590 38.384,287.332 38.035 C 286.886 37.429,121.946 36.886,118.894 37.481 M114.400 150.935 C 111.951 152.073,110.573 153.475,110.905 154.492 C 110.957 154.653,110.609 155.058,110.132 155.393 C 109.654 155.727,109.135 156.586,108.978 157.300 C 108.821 158.015,108.382 158.818,108.001 159.084 C 107.621 159.350,107.068 160.160,106.772 160.884 C 106.476 161.608,106.001 162.438,105.717 162.729 C 105.433 163.019,105.200 163.500,105.200 163.798 C 105.200 164.095,104.737 164.889,104.171 165.561 C 103.595 166.246,103.270 166.990,103.433 167.254 C 103.615 167.548,103.551 167.617,103.262 167.438 C 102.988 167.269,102.800 167.407,102.800 167.776 C 102.800 168.119,102.795 168.486,102.790 168.590 C 102.784 168.695,102.330 169.266,101.780 169.859 C 101.230 170.452,100.676 171.357,100.547 171.869 C 100.418 172.381,100.165 172.800,99.984 172.800 C 99.652 172.800,99.130 174.026,99.301 174.400 C 99.352 174.510,98.839 175.410,98.161 176.400 C 95.688 180.012,94.800 181.451,94.800 181.844 C 94.800 182.064,94.356 182.846,93.813 183.582 C 93.271 184.318,92.921 185.073,93.037 185.260 C 93.153 185.447,93.046 185.600,92.800 185.600 C 92.554 185.600,92.452 185.761,92.574 185.958 C 92.696 186.155,92.508 186.427,92.156 186.561 C 91.780 186.706,91.615 187.061,91.754 187.424 C 91.889 187.777,91.822 187.937,91.595 187.797 C 91.240 187.577,91.027 188.106,91.153 188.900 C 91.179 189.065,91.009 189.200,90.776 189.200 C 90.543 189.200,90.465 189.381,90.602 189.603 C 90.739 189.824,90.575 190.111,90.238 190.241 C 89.437 190.548,87.515 194.000,87.772 194.670 C 87.881 194.956,87.757 195.148,87.495 195.095 C 87.233 195.043,86.957 195.405,86.882 195.900 C 86.806 196.395,86.592 196.800,86.405 196.800 C 85.918 196.800,84.303 199.520,84.551 199.921 C 84.666 200.106,84.401 200.564,83.962 200.939 C 83.524 201.314,83.263 201.778,83.381 201.969 C 83.499 202.160,83.308 202.427,82.956 202.561 C 82.580 202.706,82.415 203.061,82.554 203.424 C 82.684 203.764,82.622 203.937,82.415 203.810 C 82.209 203.682,81.833 203.964,81.580 204.437 C 81.208 205.132,81.223 205.243,81.660 205.019 C 81.957 204.866,81.911 204.980,81.558 205.272 C 81.205 205.564,80.788 206.207,80.631 206.702 C 80.474 207.196,80.159 207.600,79.930 207.600 C 79.702 207.600,79.622 207.879,79.753 208.221 C 79.889 208.575,79.822 208.737,79.597 208.598 C 79.381 208.464,78.980 208.860,78.706 209.477 C 78.433 210.095,77.974 210.846,77.687 211.146 C 77.399 211.447,77.232 211.895,77.314 212.143 C 77.397 212.390,77.270 212.813,77.032 213.083 C 75.761 214.523,75.583 214.849,75.841 215.267 C 76.015 215.548,75.946 215.614,75.662 215.438 C 75.258 215.189,75.157 215.362,75.214 216.214 C 75.222 216.332,74.950 216.707,74.611 217.047 C 74.271 217.386,74.112 217.858,74.258 218.094 C 74.405 218.332,74.338 218.409,74.108 218.267 C 73.880 218.126,73.464 218.563,73.184 219.239 C 72.904 219.915,72.472 220.678,72.224 220.934 C 71.975 221.190,71.149 222.655,70.386 224.188 C 69.624 225.721,68.773 227.221,68.496 227.520 C 68.219 227.819,68.098 228.234,68.226 228.442 C 68.354 228.650,68.221 228.770,67.930 228.710 C 67.638 228.649,67.400 228.870,67.400 229.200 C 67.400 229.530,67.175 229.944,66.900 230.120 C 66.625 230.296,66.400 230.614,66.400 230.828 C 66.400 231.041,65.960 231.913,65.423 232.764 C 64.885 233.615,64.555 234.422,64.689 234.556 C 64.824 234.690,64.721 234.800,64.461 234.800 C 64.202 234.800,63.587 235.655,63.095 236.700 C 62.603 237.745,62.079 238.692,61.932 238.804 C 61.785 238.916,61.605 239.255,61.532 239.558 C 61.459 239.860,60.991 240.565,60.490 241.123 C 59.990 241.681,59.465 242.602,59.324 243.169 C 59.183 243.736,58.738 244.790,58.334 245.512 C 57.463 247.070,57.361 250.104,58.158 250.765 C 58.465 251.020,58.829 251.829,58.967 252.563 C 59.104 253.297,59.570 254.325,60.001 254.849 C 61.224 256.332,61.391 256.591,61.532 257.216 C 61.604 257.537,61.898 258.070,62.184 258.400 C 62.471 258.730,62.830 259.408,62.981 259.906 C 63.137 260.415,63.447 260.695,63.691 260.544 C 63.939 260.391,64.009 260.462,63.855 260.711 C 63.600 261.124,64.872 263.436,66.142 264.867 C 66.467 265.233,66.628 265.638,66.500 265.767 C 66.372 265.895,66.487 266.000,66.757 266.000 C 67.027 266.000,67.142 266.171,67.013 266.379 C 66.884 266.588,67.557 267.983,68.508 269.479 C 69.460 270.976,70.550 272.869,70.932 273.687 C 71.313 274.505,71.906 275.331,72.249 275.523 C 72.591 275.715,72.849 275.946,72.822 276.036 C 72.794 276.126,72.971 276.771,73.214 277.468 C 73.882 279.386,75.600 279.735,75.600 277.953 C 75.600 277.513,75.759 277.251,75.954 277.371 C 76.148 277.491,76.542 277.007,76.829 276.295 C 77.116 275.583,77.767 274.443,78.275 273.762 C 78.784 273.081,79.200 272.226,79.200 271.862 C 79.200 271.498,79.382 271.200,79.605 271.200 C 79.828 271.200,80.413 270.345,80.905 269.300 C 81.397 268.255,81.945 267.294,82.121 267.163 C 82.298 267.033,82.388 266.731,82.321 266.492 C 82.255 266.252,82.523 265.815,82.918 265.521 C 83.313 265.226,83.665 264.595,83.701 264.120 C 83.737 263.644,83.884 263.328,84.027 263.417 C 84.171 263.506,84.611 262.863,85.005 261.989 C 85.399 261.115,85.862 260.400,86.034 260.400 C 86.367 260.400,87.011 258.800,86.879 258.300 C 86.836 258.135,86.991 258.000,87.224 258.000 C 87.457 258.000,87.536 257.820,87.400 257.600 C 87.264 257.380,87.348 257.200,87.586 257.200 C 87.825 257.200,88.177 256.795,88.370 256.300 C 88.562 255.805,89.188 254.717,89.760 253.882 C 90.332 253.047,90.797 252.237,90.794 252.082 C 90.791 251.927,90.613 252.070,90.400 252.400 C 90.156 252.777,90.010 252.819,90.006 252.514 C 90.003 252.247,90.360 251.835,90.800 251.600 C 91.240 251.365,91.600 250.818,91.600 250.386 C 91.600 249.954,91.741 249.600,91.914 249.600 C 92.086 249.600,92.546 249.060,92.936 248.400 C 93.326 247.740,93.554 247.200,93.442 247.200 C 93.330 247.200,93.686 246.717,94.234 246.126 C 94.781 245.535,95.138 244.817,95.028 244.529 C 94.918 244.241,95.147 243.689,95.537 243.303 C 96.168 242.679,97.658 240.342,99.122 237.684 C 99.400 237.180,99.503 236.567,99.352 236.322 C 99.189 236.059,99.257 235.988,99.518 236.149 C 99.761 236.300,100.155 236.057,100.394 235.611 C 100.633 235.165,100.725 234.800,100.598 234.800 C 100.471 234.800,100.825 234.307,101.384 233.704 C 101.943 233.101,102.400 232.378,102.400 232.096 C 102.400 231.553,105.515 229.192,106.699 228.837 C 108.197 228.388,177.696 228.381,178.236 228.830 C 178.527 229.071,178.940 229.160,179.155 229.028 C 179.369 228.895,179.660 228.973,179.800 229.200 C 179.940 229.427,180.223 229.509,180.428 229.383 C 180.632 229.256,180.800 229.354,180.800 229.600 C 180.800 229.846,181.008 229.919,181.262 229.762 C 181.547 229.585,181.615 229.652,181.439 229.936 C 181.269 230.211,181.567 230.584,182.177 230.863 C 182.740 231.119,183.200 231.571,183.200 231.868 C 183.200 232.165,183.551 232.708,183.980 233.075 C 184.408 233.442,184.668 233.891,184.556 234.071 C 184.444 234.252,184.573 234.400,184.843 234.400 C 185.113 234.400,185.221 234.513,185.083 234.651 C 184.752 234.981,185.908 237.200,186.410 237.200 C 186.625 237.200,186.800 237.456,186.800 237.768 C 186.800 238.526,189.190 242.895,190.309 244.182 C 190.799 244.745,191.200 245.485,191.200 245.827 C 191.200 246.194,191.389 246.331,191.662 246.162 C 191.967 245.973,192.014 246.054,191.801 246.399 C 191.597 246.728,191.751 247.121,192.215 247.461 C 192.621 247.757,192.824 248.000,192.666 248.000 C 192.348 248.000,193.449 250.274,194.152 251.067 C 195.314 252.378,195.536 252.731,195.327 252.940 C 195.138 253.128,196.797 256.009,197.895 257.400 C 198.068 257.620,198.538 258.538,198.939 259.441 C 199.340 260.343,200.058 261.520,200.534 262.056 C 201.010 262.591,201.455 263.293,201.522 263.615 C 201.589 263.937,201.859 264.381,202.122 264.601 C 202.385 264.822,202.650 265.272,202.711 265.601 C 202.934 266.800,203.731 267.967,204.160 267.722 C 204.402 267.584,204.477 267.609,204.327 267.776 C 204.176 267.943,204.611 269.097,205.292 270.340 C 205.973 271.583,206.783 273.093,207.092 273.695 C 207.401 274.298,207.957 274.967,208.327 275.183 C 208.697 275.399,208.861 275.581,208.692 275.588 C 208.224 275.606,209.954 278.800,210.432 278.800 C 210.660 278.800,210.751 278.956,210.633 279.146 C 210.392 279.537,212.693 283.229,213.485 283.720 C 213.768 283.896,213.997 284.256,213.994 284.520 C 213.990 284.814,213.837 284.767,213.600 284.400 C 213.373 284.048,213.210 283.995,213.206 284.271 C 213.203 284.531,213.425 284.988,213.700 285.288 C 214.419 286.073,215.187 287.294,215.451 288.072 C 215.576 288.442,215.943 288.846,216.265 288.970 C 216.587 289.093,216.739 289.376,216.602 289.597 C 216.465 289.819,216.554 290.000,216.800 290.000 C 217.046 290.000,217.149 290.159,217.029 290.353 C 216.909 290.547,217.220 291.312,217.719 292.053 C 219.348 294.472,218.223 300.730,215.849 302.455 C 215.656 302.596,215.638 302.938,215.811 303.217 C 216.014 303.547,215.962 303.624,215.662 303.438 C 215.391 303.271,215.200 303.402,215.200 303.756 C 215.200 304.087,214.744 304.851,214.186 305.453 C 213.628 306.055,213.266 306.794,213.381 307.095 C 213.496 307.395,213.413 307.532,213.195 307.397 C 212.978 307.263,212.800 307.514,212.800 307.957 C 212.800 308.399,212.554 308.904,212.254 309.080 C 211.691 309.410,210.215 312.000,210.590 312.000 C 210.705 312.000,210.440 312.360,210.000 312.800 C 209.560 313.240,209.200 313.938,209.200 314.351 C 209.200 314.764,208.932 315.324,208.604 315.596 C 208.277 315.868,208.110 316.255,208.234 316.455 C 208.358 316.656,208.261 316.770,208.019 316.710 C 207.544 316.591,204.800 321.297,204.800 322.232 C 204.800 322.544,204.638 322.800,204.440 322.800 C 203.937 322.800,202.343 325.584,202.604 326.006 C 202.721 326.196,202.558 326.497,202.241 326.675 C 201.924 326.854,201.605 327.270,201.532 327.600 C 201.460 327.930,201.310 328.290,201.200 328.400 C 200.462 329.138,199.196 331.255,199.646 330.998 C 199.951 330.825,199.795 331.076,199.300 331.557 C 198.805 332.038,198.400 332.672,198.400 332.967 C 198.400 333.261,198.128 333.728,197.795 334.004 C 197.462 334.281,197.237 334.716,197.295 334.971 C 197.353 335.226,196.893 335.942,196.274 336.562 C 195.644 337.192,195.246 337.942,195.370 338.265 C 195.493 338.586,195.416 338.733,195.195 338.597 C 194.978 338.463,194.778 338.633,194.750 338.976 C 194.650 340.227,194.589 340.375,193.963 340.883 C 193.100 341.584,190.962 345.387,191.652 344.995 C 192.094 344.743,192.104 344.787,191.700 345.221 C 191.425 345.518,191.200 345.949,191.200 346.180 C 191.200 346.612,223.092 346.641,223.523 346.210 C 223.639 346.095,223.928 346.003,224.167 346.006 C 224.405 346.009,224.330 346.206,224.000 346.444 C 223.501 346.803,223.523 346.835,224.133 346.638 C 224.536 346.507,225.041 346.400,225.256 346.400 C 225.471 346.400,225.536 346.220,225.400 346.000 C 225.264 345.780,225.496 345.600,225.914 345.600 C 226.802 345.600,228.142 344.275,227.701 343.834 C 227.535 343.669,227.653 343.593,227.963 343.667 C 228.273 343.740,228.813 343.260,229.163 342.600 C 229.513 341.940,229.909 341.310,230.043 341.200 C 230.177 341.090,230.675 340.190,231.150 339.200 C 231.625 338.210,232.448 336.689,232.980 335.819 C 233.512 334.950,233.842 334.067,233.712 333.858 C 233.582 333.648,233.684 333.605,233.938 333.762 C 234.342 334.011,234.443 333.838,234.386 332.986 C 234.378 332.868,234.603 332.514,234.886 332.200 C 235.983 330.980,236.336 330.483,236.941 329.313 C 237.286 328.647,237.455 327.989,237.317 327.851 C 237.179 327.713,237.272 327.600,237.523 327.600 C 238.073 327.600,239.273 325.406,238.917 325.051 C 238.779 324.913,238.887 324.800,239.157 324.800 C 239.427 324.800,239.542 324.629,239.412 324.420 C 239.283 324.211,239.518 323.858,239.934 323.635 C 240.350 323.413,240.926 322.639,241.215 321.915 C 241.504 321.192,242.068 320.122,242.470 319.538 C 242.871 318.954,243.200 318.189,243.200 317.838 C 243.200 317.487,243.382 317.200,243.605 317.200 C 243.828 317.200,244.413 316.345,244.905 315.300 C 245.397 314.255,246.027 313.160,246.304 312.868 C 246.581 312.575,246.705 312.170,246.580 311.968 C 246.455 311.765,246.529 311.600,246.744 311.600 C 247.234 311.600,248.971 308.837,248.670 308.536 C 248.548 308.414,248.621 308.109,248.831 307.857 C 250.847 305.453,250.990 305.201,250.847 304.300 C 250.821 304.135,250.950 304.000,251.133 304.000 C 251.317 304.000,251.985 303.010,252.618 301.800 C 253.251 300.590,253.884 299.600,254.024 299.600 C 254.164 299.600,254.615 298.835,255.027 297.900 C 255.439 296.965,256.559 294.963,257.516 293.451 C 258.474 291.940,259.283 290.365,259.314 289.951 C 259.345 289.538,259.494 289.200,259.646 289.200 C 260.012 289.200,261.713 286.336,261.724 285.700 C 261.729 285.425,261.825 285.291,261.936 285.403 C 262.136 285.602,264.384 281.782,264.527 281.001 C 264.567 280.782,264.870 280.383,265.200 280.114 C 265.530 279.845,265.665 279.620,265.500 279.613 C 265.335 279.606,265.574 279.226,266.031 278.769 C 266.488 278.312,266.769 277.697,266.656 277.402 C 266.543 277.107,266.709 276.767,267.025 276.646 C 267.341 276.524,267.600 276.149,267.600 275.813 C 267.600 275.476,267.761 275.200,267.957 275.200 C 268.154 275.200,268.422 274.921,268.553 274.579 C 268.709 274.171,268.622 274.044,268.295 274.209 C 268.023 274.347,268.112 274.203,268.494 273.890 C 268.875 273.577,269.070 273.204,268.927 273.060 C 268.784 272.917,268.907 272.800,269.200 272.800 C 269.493 272.800,269.628 272.695,269.500 272.567 C 269.372 272.438,269.612 271.988,270.033 271.567 C 270.455 271.145,270.800 270.459,270.800 270.043 C 270.800 269.626,271.062 269.185,271.382 269.062 C 272.023 268.816,273.802 265.608,273.308 265.587 C 273.139 265.580,273.270 265.355,273.600 265.086 C 274.363 264.465,275.748 262.000,275.334 262.000 C 275.162 262.000,275.434 261.711,275.938 261.358 C 276.443 261.004,276.758 260.467,276.639 260.158 C 276.522 259.851,276.610 259.600,276.836 259.600 C 277.062 259.600,277.136 259.420,277.000 259.200 C 276.864 258.980,276.943 258.800,277.176 258.800 C 277.409 258.800,277.600 258.429,277.600 257.976 C 277.600 257.523,277.775 257.261,277.989 257.393 C 278.203 257.525,278.734 256.951,279.170 256.117 C 280.695 253.198,281.600 251.129,281.600 250.561 C 281.600 250.247,281.816 249.643,282.081 249.219 C 282.431 248.658,282.446 248.199,282.136 247.525 C 281.902 247.016,281.486 245.880,281.211 245.000 C 280.659 243.232,278.654 239.803,277.515 238.676 C 277.112 238.278,276.887 237.783,277.014 237.577 C 277.291 237.130,276.245 235.518,275.864 235.803 C 275.719 235.911,275.687 235.883,275.792 235.741 C 276.039 235.409,274.359 232.400,273.926 232.400 C 273.747 232.400,273.600 232.158,273.600 231.861 C 273.600 231.244,272.406 228.699,271.975 228.400 C 271.817 228.290,271.290 227.435,270.803 226.500 C 270.317 225.565,269.747 224.800,269.536 224.800 C 269.325 224.800,269.264 224.620,269.400 224.400 C 269.536 224.180,269.446 224.000,269.200 224.000 C 268.954 224.000,268.851 223.841,268.971 223.647 C 269.091 223.453,268.778 222.688,268.276 221.947 C 267.775 221.206,266.944 219.730,266.431 218.668 C 265.917 217.605,265.252 216.641,264.951 216.526 C 264.650 216.411,264.495 216.170,264.606 215.990 C 264.717 215.811,264.581 215.425,264.304 215.132 C 264.027 214.840,263.397 213.745,262.905 212.700 C 262.413 211.655,261.798 210.800,261.539 210.800 C 261.279 210.800,261.180 210.686,261.319 210.547 C 261.694 210.173,260.822 208.739,260.385 209.010 C 260.178 209.137,260.116 208.964,260.246 208.624 C 260.385 208.261,260.220 207.906,259.844 207.761 C 259.492 207.627,259.294 207.371,259.404 207.194 C 259.702 206.711,259.169 205.572,258.763 205.823 C 258.568 205.943,258.509 205.781,258.631 205.462 C 258.756 205.138,258.490 204.629,258.029 204.306 C 257.576 203.988,257.324 203.609,257.469 203.464 C 257.614 203.319,257.523 203.200,257.267 203.200 C 257.010 203.200,256.821 203.065,256.847 202.900 C 256.960 202.190,256.751 201.698,255.992 200.883 C 255.547 200.406,255.206 199.914,255.233 199.791 C 255.326 199.369,254.304 197.200,254.012 197.200 C 253.852 197.200,253.399 196.485,253.005 195.611 C 252.611 194.737,252.129 194.120,251.934 194.241 C 251.740 194.361,251.630 194.307,251.690 194.122 C 251.844 193.648,250.345 190.400,249.972 190.400 C 249.804 190.400,249.357 189.590,248.979 188.600 C 248.601 187.610,248.155 186.800,247.989 186.800 C 247.823 186.800,247.582 186.395,247.454 185.900 C 247.326 185.405,246.766 184.477,246.210 183.838 C 245.655 183.199,245.200 182.421,245.200 182.110 C 245.200 181.799,244.660 180.759,244.000 179.800 C 243.340 178.841,242.800 177.873,242.800 177.651 C 242.800 177.428,242.441 176.994,242.003 176.687 C 241.564 176.380,241.307 176.026,241.432 175.901 C 241.757 175.577,240.515 173.304,239.792 172.900 C 239.458 172.713,239.107 172.154,239.011 171.657 C 238.804 170.584,237.286 168.017,236.417 167.270 C 236.025 166.934,236.002 166.845,236.354 167.027 C 236.802 167.259,235.561 165.161,234.800 164.400 C 234.690 164.290,234.542 163.864,234.472 163.453 C 234.401 163.042,234.131 162.450,233.872 162.139 C 232.753 160.795,232.593 160.550,232.468 159.990 C 232.396 159.666,232.099 159.130,231.808 158.800 C 231.518 158.470,230.987 157.570,230.629 156.800 C 229.074 153.453,227.673 151.812,225.645 150.962 C 223.831 150.203,116.034 150.177,114.400 150.935 M113.610 244.961 C 112.685 245.374,108.936 250.670,109.307 251.040 C 109.534 251.267,109.325 251.610,108.152 252.933 C 107.449 253.726,106.348 256.000,106.666 256.000 C 106.824 256.000,106.621 256.243,106.215 256.539 C 105.751 256.879,105.597 257.272,105.801 257.601 C 106.014 257.946,105.967 258.027,105.662 257.838 C 105.386 257.668,105.200 257.811,105.200 258.193 C 105.200 258.545,104.818 259.231,104.352 259.717 C 103.288 260.825,101.977 263.639,102.289 264.144 C 102.418 264.353,102.349 264.416,102.135 264.284 C 101.922 264.152,101.434 264.574,101.051 265.222 C 100.668 265.870,100.495 266.400,100.666 266.400 C 100.838 266.400,100.566 266.689,100.062 267.042 C 99.536 267.410,99.241 267.929,99.369 268.262 C 99.510 268.632,99.423 268.738,99.127 268.555 C 98.818 268.364,98.749 268.490,98.919 268.934 C 99.060 269.300,98.990 269.600,98.764 269.600 C 98.538 269.600,98.452 269.761,98.574 269.958 C 98.696 270.155,98.546 270.412,98.242 270.529 C 97.515 270.808,96.341 273.181,96.668 273.710 C 96.818 273.952,96.728 274.003,96.452 273.832 C 96.149 273.645,95.700 274.156,95.191 275.271 C 94.756 276.222,94.136 277.342,93.813 277.759 C 93.490 278.176,93.320 278.671,93.436 278.859 C 93.552 279.047,93.502 279.201,93.324 279.203 C 92.858 279.207,91.039 281.973,91.318 282.252 C 91.447 282.380,91.379 282.691,91.169 282.943 C 89.589 284.827,89.200 285.364,89.200 285.661 C 89.200 286.297,89.045 286.600,88.322 287.375 C 87.656 288.090,87.450 288.607,87.700 288.929 C 87.755 288.999,87.530 289.353,87.200 289.715 C 85.490 291.588,84.657 293.045,84.988 293.581 C 85.112 293.781,85.030 294.058,84.807 294.196 C 84.583 294.334,84.400 294.876,84.400 295.400 C 84.400 295.924,84.583 296.466,84.807 296.604 C 85.030 296.742,85.118 297.009,85.001 297.198 C 84.702 297.683,85.646 299.619,86.058 299.364 C 86.246 299.248,86.400 299.408,86.400 299.720 C 86.400 300.312,88.406 304.269,89.582 306.000 C 89.956 306.550,90.955 308.260,91.801 309.800 C 93.459 312.819,94.833 314.924,95.278 315.126 C 95.430 315.195,95.464 315.490,95.352 315.782 C 95.240 316.073,95.655 316.820,96.274 317.441 C 96.893 318.062,97.347 318.734,97.283 318.935 C 97.219 319.136,97.414 319.593,97.717 319.950 C 98.020 320.308,98.499 321.183,98.781 321.895 C 99.062 322.607,99.450 323.093,99.642 322.974 C 99.834 322.856,99.901 322.993,99.791 323.279 C 99.681 323.566,99.999 324.257,100.496 324.815 C 100.993 325.373,101.460 326.093,101.532 326.415 C 101.605 326.737,101.924 327.146,102.241 327.325 C 102.558 327.503,102.708 327.826,102.574 328.042 C 102.300 328.485,103.443 330.431,104.263 330.920 C 104.558 331.096,104.800 331.486,104.800 331.788 C 104.800 332.673,107.540 337.409,107.989 337.300 C 108.215 337.245,108.400 337.560,108.400 338.000 C 108.400 338.440,108.567 338.800,108.772 338.800 C 108.977 338.800,109.206 339.205,109.282 339.700 C 109.357 340.195,109.640 340.555,109.909 340.500 C 110.179 340.445,110.400 340.642,110.400 340.938 C 110.400 341.234,110.791 341.819,111.269 342.238 C 111.847 342.745,112.036 342.799,111.835 342.400 C 111.669 342.070,112.061 342.412,112.706 343.161 C 113.485 344.065,114.054 344.414,114.401 344.199 C 114.729 343.996,114.826 344.034,114.662 344.299 C 114.515 344.538,114.924 344.905,115.600 345.140 C 116.260 345.370,116.800 345.450,116.800 345.317 C 116.800 345.185,117.154 345.396,117.587 345.788 C 118.046 346.204,118.713 346.412,119.187 346.287 C 119.635 346.170,119.902 346.235,119.781 346.432 C 119.538 346.824,169.964 346.942,170.981 346.552 C 171.319 346.422,171.496 346.155,171.374 345.958 C 171.252 345.761,171.487 345.600,171.896 345.600 C 172.848 345.600,173.600 344.848,173.600 343.896 C 173.600 343.487,173.753 343.247,173.940 343.363 C 174.127 343.478,174.528 343.084,174.832 342.486 C 175.135 341.889,175.817 340.810,176.348 340.089 C 176.878 339.368,177.201 338.668,177.067 338.534 C 176.932 338.399,177.268 337.759,177.814 337.111 C 178.359 336.463,178.715 335.786,178.605 335.608 C 178.495 335.430,178.674 335.181,179.002 335.054 C 179.331 334.928,179.600 334.549,179.600 334.213 C 179.600 333.876,179.766 333.600,179.969 333.600 C 180.172 333.600,180.547 332.965,180.803 332.190 C 181.059 331.414,181.679 330.289,182.180 329.690 C 183.092 328.598,183.837 326.889,183.669 326.270 C 183.620 326.089,183.765 326.055,183.990 326.194 C 184.349 326.416,184.427 326.261,184.392 325.392 C 184.387 325.278,184.570 324.963,184.799 324.692 C 186.818 322.302,186.990 322.002,186.847 321.100 C 186.821 320.935,186.991 320.800,187.224 320.800 C 187.457 320.800,187.548 320.639,187.426 320.442 C 187.304 320.245,187.492 319.973,187.844 319.839 C 188.252 319.682,188.388 319.346,188.220 318.909 C 188.076 318.532,188.089 318.355,188.249 318.515 C 188.537 318.804,189.728 317.084,191.099 314.400 C 191.492 313.630,192.113 312.550,192.479 312.000 C 192.846 311.450,193.203 310.730,193.273 310.400 C 193.343 310.070,193.724 309.558,194.121 309.263 C 194.517 308.967,194.773 308.519,194.689 308.266 C 194.605 308.014,194.775 307.568,195.068 307.275 C 195.361 306.982,195.600 306.385,195.600 305.948 C 195.600 305.511,195.764 305.254,195.965 305.378 C 196.382 305.636,198.958 301.161,199.358 299.484 C 199.504 298.870,199.788 298.469,199.990 298.594 C 201.456 299.500,201.213 293.437,199.719 291.826 C 199.172 291.236,198.674 290.293,198.612 289.731 C 198.551 289.169,198.323 288.595,198.106 288.455 C 197.889 288.315,197.393 287.579,197.004 286.820 C 196.615 286.060,196.050 285.192,195.748 284.891 C 195.447 284.590,195.200 284.131,195.200 283.871 C 195.199 283.123,192.156 278.377,191.864 278.670 C 191.719 278.815,191.600 278.543,191.600 278.067 C 191.600 277.590,191.409 277.200,191.176 277.200 C 190.943 277.200,190.864 277.020,191.000 276.800 C 191.136 276.580,191.062 276.400,190.836 276.400 C 190.610 276.400,190.522 276.149,190.639 275.842 C 190.758 275.533,190.443 274.996,189.938 274.642 C 189.434 274.289,189.149 274.000,189.305 274.000 C 189.460 274.000,189.212 273.280,188.753 272.400 C 188.295 271.520,187.787 270.800,187.626 270.800 C 187.465 270.800,187.333 270.569,187.333 270.288 C 187.333 269.609,186.004 267.600,185.554 267.600 C 185.359 267.600,185.226 267.465,185.257 267.300 C 185.397 266.569,184.244 264.345,183.527 263.961 C 183.093 263.729,182.832 263.294,182.947 262.995 C 183.140 262.490,181.807 260.370,181.105 260.066 C 180.934 259.992,180.897 259.767,181.021 259.566 C 181.145 259.365,181.062 259.200,180.836 259.200 C 180.610 259.200,180.520 258.953,180.636 258.652 C 180.751 258.350,180.589 257.846,180.275 257.532 C 179.961 257.218,179.406 256.385,179.042 255.680 C 178.677 254.976,178.233 254.400,178.053 254.400 C 177.874 254.400,177.509 253.675,177.244 252.788 C 176.978 251.902,176.592 251.281,176.385 251.409 C 176.178 251.537,176.116 251.362,176.247 251.021 C 176.378 250.679,176.286 250.400,176.043 250.400 C 175.799 250.400,175.600 250.136,175.600 249.814 C 175.600 249.492,175.247 249.039,174.815 248.808 C 174.353 248.561,174.124 248.143,174.258 247.794 C 174.383 247.467,174.298 247.200,174.070 247.200 C 173.841 247.200,173.540 246.840,173.400 246.400 C 173.260 245.959,172.801 245.415,172.380 245.189 C 171.400 244.665,114.767 244.445,113.610 244.961 " stroke="none" fill="#0c0404" fill-rule="evenodd"></path><path id="path1" d="" stroke="none" fill="#0c040c" fill-rule="evenodd"></path><path id="path2" d="M125.100 228.700 C 134.835 228.760,150.765 228.760,160.500 228.700 C 170.235 228.640,162.270 228.591,142.800 228.591 C 123.330 228.591,115.365 228.640,125.100 228.700 M129.100 244.700 C 136.635 244.761,148.965 244.761,156.500 244.700 C 164.035 244.639,157.870 244.589,142.800 244.589 C 127.730 244.589,121.565 244.639,129.100 244.700 M199.926 346.700 C 204.176 346.764,211.016 346.764,215.126 346.699 C 219.237 346.634,215.760 346.581,207.400 346.581 C 199.040 346.582,195.677 346.635,199.926 346.700 " stroke="none" fill="#100404" fill-rule="evenodd"></path><path id="path3" d="M125.100 228.700 C 134.835 228.760,150.765 228.760,160.500 228.700 C 170.235 228.640,162.270 228.591,142.800 228.591 C 123.330 228.591,115.365 228.640,125.100 228.700 M129.100 244.700 C 136.635 244.761,148.965 244.761,156.500 244.700 C 164.035 244.639,157.870 244.589,142.800 244.589 C 127.730 244.589,121.565 244.639,129.100 244.700 M199.926 346.700 C 204.176 346.764,211.016 346.764,215.126 346.699 C 219.237 346.634,215.760 346.581,207.400 346.581 C 199.040 346.582,195.677 346.635,199.926 346.700 " stroke="none" fill="#100404" fill-rule="evenodd"></path><path id="path4" d="M125.100 228.700 C 134.835 228.760,150.765 228.760,160.500 228.700 C 170.235 228.640,162.270 228.591,142.800 228.591 C 123.330 228.591,115.365 228.640,125.100 228.700 M129.100 244.700 C 136.635 244.761,148.965 244.761,156.500 244.700 C 164.035 244.639,157.870 244.589,142.800 244.589 C 127.730 244.589,121.565 244.639,129.100 244.700 M199.926 346.700 C 204.176 346.764,211.016 346.764,215.126 346.699 C 219.237 346.634,215.760 346.581,207.400 346.581 C 199.040 346.582,195.677 346.635,199.926 346.700 " stroke="none" fill="#100404" fill-rule="evenodd"></path></g></svg>